<svg width="528" height="229" viewBox="0 0 528 229" fill="none" xmlns="http://www.w3.org/2000/svg">
<path d="M4.48 2.28V59H26.4C37.04 59 43.92 52.36 43.92 43.16C43.92 36.12 39.44 31.08 33.92 29.72C38.64 28.12 42.16 23.4 42.16 17.56C42.16 8.76 35.92 2.28 24.88 2.28H4.48ZM15.36 25.72V11.56H23.12C28.48 11.56 31.28 14.28 31.28 18.6C31.28 22.92 28.24 25.72 23.2 25.72H15.36ZM15.36 49.8V34.84H24.48C30 34.84 32.88 37.96 32.88 42.44C32.88 47 29.68 49.8 24.32 49.8H15.36ZM75.1421 59H85.3021C85.1421 57.64 84.9021 54.92 84.9021 51.88V19.64H74.2621V42.52C74.2621 47.08 71.5421 50.28 66.8221 50.28C61.8621 50.28 59.6221 46.76 59.6221 42.36V19.64H48.9821V44.52C48.9821 53.08 54.4221 60.04 63.9421 60.04C68.1021 60.04 72.6621 58.44 74.8221 54.76C74.8221 56.36 74.9821 58.2 75.1421 59ZM104.396 59V19.64H93.756V59H104.396ZM92.476 6.76C92.476 10.28 95.436 13.24 99.036 13.24C102.716 13.24 105.596 10.28 105.596 6.76C105.596 3.08 102.716 0.119995 99.036 0.119995C95.436 0.119995 92.476 3.08 92.476 6.76ZM123.926 59V1.08H113.286V59H123.926ZM170.336 1.08H159.856V23.56C158.736 21.48 155.536 18.68 148.736 18.68C137.616 18.68 129.856 27.72 129.856 39.24C129.856 51.16 137.856 59.96 149.056 59.96C154.336 59.96 158.336 57.56 160.096 54.44C160.096 56.28 160.336 58.2 160.496 59H170.656C170.496 57.4 170.336 54.52 170.336 51.88V1.08ZM140.576 39.24C140.576 32.2 144.896 28.2 150.336 28.2C155.776 28.2 160.016 32.12 160.016 39.16C160.016 46.28 155.776 50.44 150.336 50.44C144.736 50.44 140.576 46.28 140.576 39.24ZM210.242 74.52L234.962 19.64H223.602L213.922 42.68L203.442 19.64H191.522L208.242 54.04L198.962 74.52H210.242ZM254.712 50.52C249.512 50.52 244.712 46.68 244.712 39.32C244.712 31.88 249.512 28.12 254.712 28.12C259.912 28.12 264.712 31.88 264.712 39.32C264.712 46.76 259.912 50.52 254.712 50.52ZM254.712 18.44C242.952 18.44 234.072 27.16 234.072 39.32C234.072 51.4 242.952 60.2 254.712 60.2C266.472 60.2 275.352 51.4 275.352 39.32C275.352 27.16 266.472 18.44 254.712 18.44ZM306.853 59H317.013C316.853 57.64 316.613 54.92 316.613 51.88V19.64H305.973V42.52C305.973 47.08 303.253 50.28 298.533 50.28C293.573 50.28 291.333 46.76 291.333 42.36V19.64H280.693V44.52C280.693 53.08 286.133 60.04 295.653 60.04C299.813 60.04 304.373 58.44 306.533 54.76C306.533 56.36 306.693 58.2 306.853 59ZM349.467 19.48C348.667 19.4 347.867 19.32 346.987 19.32C343.627 19.32 338.187 20.28 335.787 25.48V19.64H325.467V59H336.107V41C336.107 32.52 340.827 29.88 346.267 29.88C347.227 29.88 348.267 29.96 349.467 30.2V19.48ZM382.121 36.36C382.121 31.8 384.841 28.2 389.481 28.2C394.601 28.2 396.761 31.64 396.761 36.04V59H407.401V34.2C407.401 25.56 402.921 18.6 393.161 18.6C388.921 18.6 384.201 20.44 381.801 24.52V19.64H371.481V59H382.121V36.36ZM423.459 34.84C423.699 31.24 426.739 27.08 432.259 27.08C438.339 27.08 440.899 30.92 441.059 34.84H423.459ZM442.099 45.08C440.819 48.6 438.099 51.08 433.139 51.08C427.859 51.08 423.459 47.32 423.219 42.12H451.379C451.379 41.96 451.539 40.36 451.539 38.84C451.539 26.2 444.259 18.44 432.099 18.44C422.019 18.44 412.739 26.6 412.739 39.16C412.739 52.44 422.259 60.2 433.059 60.2C442.739 60.2 448.979 54.52 450.979 47.72L442.099 45.08ZM452.071 59H464.071C465.431 56.84 470.711 49.08 472.151 46.92L480.391 59H492.871L478.631 38.92L492.391 19.64H480.311L472.551 31.32C471.191 29.16 466.071 21.8 464.711 19.64H452.071L466.071 39.24L452.071 59ZM510.613 7.88H501.013V13.4C501.013 16.92 499.093 19.64 494.933 19.64H492.933V29.08H500.053V47.4C500.053 55 504.853 59.56 512.533 59.56C515.653 59.56 517.573 59 518.533 58.6V49.8C517.973 49.96 516.533 50.12 515.253 50.12C512.213 50.12 510.613 49 510.613 45.56V29.08H518.533V19.64H510.613V7.88ZM14.32 143V85.08H3.68V143H14.32ZM20.5758 132.28C20.5758 138.44 25.6958 144.12 34.0958 144.12C39.9358 144.12 43.6958 141.4 45.6958 138.28C45.6958 139.8 45.8558 141.96 46.0958 143H55.8558C55.6158 141.64 55.3758 138.84 55.3758 136.76V117.4C55.3758 109.48 50.7358 102.44 38.2558 102.44C27.6958 102.44 22.0158 109.24 21.3758 115.4L30.8158 117.4C31.1358 113.96 33.6958 111 38.3358 111C42.8158 111 44.9758 113.32 44.9758 116.12C44.9758 117.48 44.2558 118.6 42.0158 118.92L32.3358 120.36C25.7758 121.32 20.5758 125.24 20.5758 132.28ZM36.3358 136.2C32.8958 136.2 31.2158 133.96 31.2158 131.64C31.2158 128.6 33.3758 127.08 36.0958 126.68L44.9758 125.32V127.08C44.9758 134.04 40.8158 136.2 36.3358 136.2ZM74.2398 120.36C74.2398 115.8 76.9598 112.2 81.5998 112.2C86.7198 112.2 88.8798 115.64 88.8798 120.04V143H99.5198V118.2C99.5198 109.56 95.0398 102.6 85.2798 102.6C81.0398 102.6 76.3198 104.44 73.9198 108.52V103.64H63.5998V143H74.2398V120.36ZM145.337 85.08H134.857V107.56C133.737 105.48 130.537 102.68 123.737 102.68C112.617 102.68 104.857 111.72 104.857 123.24C104.857 135.16 112.857 143.96 124.057 143.96C129.337 143.96 133.337 141.56 135.097 138.44C135.097 140.28 135.337 142.2 135.497 143H145.657C145.497 141.4 145.337 138.52 145.337 135.88V85.08ZM115.577 123.24C115.577 116.2 119.897 112.2 125.337 112.2C130.777 112.2 135.017 116.12 135.017 123.16C135.017 130.28 130.777 134.44 125.337 134.44C119.737 134.44 115.577 130.28 115.577 123.24ZM165.019 143V103.64H154.379V143H165.019ZM153.099 90.76C153.099 94.28 156.059 97.24 159.659 97.24C163.339 97.24 166.219 94.28 166.219 90.76C166.219 87.08 163.339 84.12 159.659 84.12C156.059 84.12 153.099 87.08 153.099 90.76ZM184.549 120.36C184.549 115.8 187.269 112.2 191.909 112.2C197.029 112.2 199.189 115.64 199.189 120.04V143H209.829V118.2C209.829 109.56 205.349 102.6 195.589 102.6C191.349 102.6 186.629 104.44 184.229 108.52V103.64H173.909V143H184.549V120.36ZM215.327 145.16C216.447 152.68 223.647 159.4 234.447 159.4C249.247 159.4 255.087 149.56 255.087 138.76V103.64H244.847V108.28C243.487 105.64 239.887 102.92 233.647 102.92C222.847 102.92 215.327 111.72 215.327 122.12C215.327 133.16 223.167 141.24 233.647 141.24C239.327 141.24 243.007 138.76 244.607 136.2V139.08C244.607 146.68 240.847 150.04 234.127 150.04C229.087 150.04 225.647 146.92 224.927 142.6L215.327 145.16ZM235.487 132.12C229.967 132.12 226.047 128.28 226.047 122.12C226.047 116.04 230.207 112.2 235.487 112.2C240.607 112.2 244.767 116.04 244.767 122.12C244.767 128.2 240.927 132.12 235.487 132.12ZM291.265 158.2V139.16C293.185 141.8 297.185 143.96 302.625 143.96C313.745 143.96 321.185 135.16 321.185 123.24C321.185 111.56 314.545 102.76 303.025 102.76C297.105 102.76 292.705 105.4 290.945 108.44V103.64H280.625V158.2H291.265ZM310.705 123.32C310.705 130.36 306.385 134.44 300.945 134.44C295.505 134.44 291.105 130.28 291.105 123.32C291.105 116.36 295.505 112.28 300.945 112.28C306.385 112.28 310.705 116.36 310.705 123.32ZM324.708 132.28C324.708 138.44 329.828 144.12 338.228 144.12C344.068 144.12 347.828 141.4 349.828 138.28C349.828 139.8 349.988 141.96 350.228 143H359.988C359.748 141.64 359.508 138.84 359.508 136.76V117.4C359.508 109.48 354.868 102.44 342.388 102.44C331.828 102.44 326.148 109.24 325.508 115.4L334.948 117.4C335.268 113.96 337.828 111 342.468 111C346.948 111 349.108 113.32 349.108 116.12C349.108 117.48 348.388 118.6 346.148 118.92L336.468 120.36C329.908 121.32 324.708 125.24 324.708 132.28ZM340.468 136.2C337.028 136.2 335.348 133.96 335.348 131.64C335.348 128.6 337.508 127.08 340.228 126.68L349.108 125.32V127.08C349.108 134.04 344.948 136.2 340.468 136.2ZM364.776 145.16C365.896 152.68 373.096 159.4 383.896 159.4C398.696 159.4 404.536 149.56 404.536 138.76V103.64H394.296V108.28C392.936 105.64 389.336 102.92 383.096 102.92C372.296 102.92 364.776 111.72 364.776 122.12C364.776 133.16 372.616 141.24 383.096 141.24C388.776 141.24 392.456 138.76 394.056 136.2V139.08C394.056 146.68 390.296 150.04 383.576 150.04C378.536 150.04 375.096 146.92 374.376 142.6L364.776 145.16ZM384.936 132.12C379.416 132.12 375.496 128.28 375.496 122.12C375.496 116.04 379.656 112.2 384.936 112.2C390.056 112.2 394.216 116.04 394.216 122.12C394.216 128.2 390.376 132.12 384.936 132.12ZM420.569 118.84C420.809 115.24 423.849 111.08 429.369 111.08C435.449 111.08 438.009 114.92 438.169 118.84H420.569ZM439.209 129.08C437.929 132.6 435.209 135.08 430.249 135.08C424.969 135.08 420.569 131.32 420.329 126.12H448.489C448.489 125.96 448.649 124.36 448.649 122.84C448.649 110.2 441.369 102.44 429.209 102.44C419.129 102.44 409.849 110.6 409.849 123.16C409.849 136.44 419.369 144.2 430.169 144.2C439.849 144.2 446.089 138.52 448.089 131.72L439.209 129.08ZM482.431 143V103.64H471.791V143H482.431ZM470.511 90.76C470.511 94.28 473.471 97.24 477.071 97.24C480.751 97.24 483.631 94.28 483.631 90.76C483.631 87.08 480.751 84.12 477.071 84.12C473.471 84.12 470.511 87.08 470.511 90.76ZM501.962 120.36C501.962 115.8 504.682 112.2 509.322 112.2C514.442 112.2 516.602 115.64 516.602 120.04V143H527.242V118.2C527.242 109.56 522.762 102.6 513.002 102.6C508.762 102.6 504.042 104.44 501.642 108.52V103.64H491.322V143H501.962V120.36ZM0.32 212.44C0.96 220.6 8.8 228.28 20.08 228.28C32.56 228.28 40 219.88 40 210.2C40 199.08 32.64 192.84 22.24 192.84C18.8 192.84 15.12 193.96 12.88 196.04L15.44 184.6H37.2V175.08H7.92L1.76 201.72C2.88 202.04 10.8 204.76 11.84 205.16C13.52 203.24 16.32 201.64 19.84 201.64C24.64 201.64 29.04 204.44 29.04 210.36C29.04 215.56 25.04 218.84 20.08 218.84C14.56 218.84 10.88 214.92 10.64 210.12L0.32 212.44ZM73.3804 227V203.96C73.3804 199.64 76.1004 196.2 80.7404 196.2C85.5404 196.2 87.7004 199.4 87.7004 203.64V227H98.2604V203.96C98.2604 199.72 100.98 196.2 105.54 196.2C110.42 196.2 112.5 199.4 112.5 203.64V227H122.82V201.48C122.82 190.92 115.86 186.52 108.58 186.52C103.38 186.52 99.2204 188.28 96.1004 193.08C94.1004 188.84 89.7804 186.52 84.4204 186.52C80.1004 186.52 75.0604 188.6 72.9004 192.44V187.64H62.7404V227H73.3804ZM141.739 227V187.64H131.099V227H141.739ZM129.819 174.76C129.819 178.28 132.779 181.24 136.379 181.24C140.059 181.24 142.939 178.28 142.939 174.76C142.939 171.08 140.059 168.12 136.379 168.12C132.779 168.12 129.819 171.08 129.819 174.76ZM161.269 204.36C161.269 199.8 163.989 196.2 168.629 196.2C173.749 196.2 175.909 199.64 175.909 204.04V227H186.549V202.2C186.549 193.56 182.069 186.6 172.309 186.6C168.069 186.6 163.349 188.44 160.949 192.52V187.64H150.629V227H161.269V204.36ZM220.294 227H230.454C230.294 225.64 230.054 222.92 230.054 219.88V187.64H219.414V210.52C219.414 215.08 216.694 218.28 211.974 218.28C207.014 218.28 204.774 214.76 204.774 210.36V187.64H194.134V212.52C194.134 221.08 199.574 228.04 209.094 228.04C213.254 228.04 217.814 226.44 219.974 222.76C219.974 224.36 220.134 226.2 220.294 227ZM252.028 175.88H242.428V181.4C242.428 184.92 240.508 187.64 236.348 187.64H234.348V197.08H241.468V215.4C241.468 223 246.268 227.56 253.948 227.56C257.068 227.56 258.988 227 259.948 226.6V217.8C259.388 217.96 257.948 218.12 256.668 218.12C253.628 218.12 252.028 217 252.028 213.56V197.08H259.948V187.64H252.028V175.88ZM273.854 202.84C274.094 199.24 277.134 195.08 282.654 195.08C288.734 195.08 291.294 198.92 291.454 202.84H273.854ZM292.494 213.08C291.214 216.6 288.494 219.08 283.534 219.08C278.254 219.08 273.854 215.32 273.614 210.12H301.774C301.774 209.96 301.934 208.36 301.934 206.84C301.934 194.2 294.654 186.44 282.494 186.44C272.414 186.44 263.134 194.6 263.134 207.16C263.134 220.44 272.654 228.2 283.454 228.2C293.134 228.2 299.374 222.52 301.374 215.72L292.494 213.08ZM304.452 216.04C304.932 220.52 309.012 228.2 320.852 228.2C331.172 228.2 336.132 221.64 336.132 215.24C336.132 209.48 332.212 204.76 324.452 203.16L318.852 201.96C316.692 201.56 315.252 200.36 315.252 198.44C315.252 196.2 317.492 194.52 320.292 194.52C324.772 194.52 326.452 197.48 326.772 199.8L335.652 197.8C335.172 193.56 331.412 186.44 320.212 186.44C311.732 186.44 305.492 192.28 305.492 199.32C305.492 204.84 308.932 209.4 316.532 211.08L321.732 212.28C324.772 212.92 325.972 214.36 325.972 216.12C325.972 218.2 324.292 220.04 320.772 220.04C316.132 220.04 313.812 217.16 313.572 214.04L304.452 216.04ZM356.266 170.28H343.386L345.946 209.72H353.706L356.266 170.28ZM343.546 221.32C343.546 224.84 346.346 227.64 349.786 227.64C353.306 227.64 356.186 224.84 356.186 221.32C356.186 217.8 353.306 214.92 349.786 214.92C346.346 214.92 343.546 217.8 343.546 221.32Z" fill="white"/>
</svg>
